<svg width="121" height="131" viewBox="0 0 121 131" fill="none" xmlns="http://www.w3.org/2000/svg">
<path d="M80.541 38.0533L100.915 56.8471L77.4608 65.5996L80.541 38.0533Z" fill="#F8718A"/>
<path d="M77 35C79.2091 35 81 36.7909 81 39V79H77V35Z" fill="#F8718A"/>
<path d="M73 112C73 114.761 61.3594 117 47 117C32.6406 117 21 114.761 21 112C21 109.239 32.6406 107 47 107C61.3594 107 73 109.239 73 112Z" fill="#F8718A"/>
<path d="M45 111.5C45 116.194 40.0751 120 34 120C27.9249 120 23 116.194 23 111.5C23 106.806 27.9249 103 34 103C40.0751 103 45 106.806 45 111.5Z" fill="#F8718A"/>
<path d="M52 116.5C52 121.194 47.0751 125 41 125C34.9249 125 30 121.194 30 116.5C30 111.806 34.9249 108 41 108C47.0751 108 52 111.806 52 116.5Z" fill="#F8718A"/>
<path d="M39 99H65V127H47C42.5817 127 39 123.418 39 119V99Z" fill="#F8718A"/>
<path d="M49 99H61V129H51C49.8954 129 49 128.105 49 127V99Z" fill="#F8718A"/>
<path d="M61 81H73V129H61V81Z" fill="#F8718A"/>
<path d="M49 57H57V79H49V57Z" fill="#F8718A"/>
<path d="M19 57H49V112H19V57Z" fill="#F8718A"/>
<path d="M77 81H79V127C77.8954 127 77 126.105 77 125V81Z" fill="#F8718A"/>
<path d="M81 116H88V121C88 124.314 85.3137 127 82 127H81V116Z" fill="#F8718A"/>
<path d="M81 64H102V116H81V64Z" fill="#F8718A"/>
<path d="M77.4932 65.0253L97.4859 54.5223L100.072 65.4796L77.4932 65.0253Z" fill="#F8718A"/>
<path d="M94.7602 112.978L103.824 115.435L93.8469 122.324L94.7602 112.978Z" fill="#F8718A"/>
<path d="M103 62.5C103 65.5376 101.209 68 99 68C96.7909 68 95 65.5376 95 62.5C95 59.4624 96.7909 57 99 57C101.209 57 103 59.4624 103 62.5Z" fill="#F8718A"/>
<path d="M96 117.5C96 121.642 92.866 125 89 125C85.134 125 82 121.642 82 117.5C82 113.358 85.134 110 89 110C92.866 110 96 113.358 96 117.5Z" fill="#F8718A"/>
<path d="M74.6946 30.2806C74.2973 29.897 73.6642 29.9081 73.2806 30.3054C72.897 30.7027 72.9081 31.3358 73.3054 31.7194L74.6946 30.2806ZM103 59H104V58.5755L103.695 58.2806L103 59ZM75 32V31H73V32H75ZM15 57H59V55H15V57ZM49 81H81V79H49V81ZM73.3054 31.7194L102.305 59.7194L103.695 58.2806L74.6946 30.2806L73.3054 31.7194ZM49 99H59V97H49V99ZM17 108V55H15V108H17ZM104 116V59H102V116H104ZM75 129V32H73V129H75ZM59 99V55H57V99H59ZM81 128V79H79V128H81ZM51 99V79H49V99H51Z" fill="#24254C"/>
<path d="M93.436 37V15.508L88.9 17.416V14.248L94.732 11.8H97V37H93.436ZM109.4 37.396C106.04 37.396 103.124 36.256 100.652 33.976L102.776 31.6C103.856 32.584 104.924 33.304 105.98 33.76C107.06 34.192 108.236 34.408 109.508 34.408C110.66 34.408 111.656 34.192 112.496 33.76C113.336 33.304 113.996 32.68 114.476 31.888C114.956 31.072 115.196 30.148 115.196 29.116C115.196 27.604 114.656 26.38 113.576 25.444C112.52 24.508 111.14 24.04 109.436 24.04C108.572 24.04 107.708 24.16 106.844 24.4C106.004 24.616 105.128 24.952 104.216 25.408L101.804 24.688L102.38 11.8H117.356V14.788H105.332L104.972 22.6C105.884 22.144 106.772 21.82 107.636 21.628C108.5 21.412 109.412 21.304 110.372 21.304C112.052 21.304 113.504 21.628 114.728 22.276C115.976 22.9 116.948 23.788 117.644 24.94C118.34 26.092 118.688 27.424 118.688 28.936C118.688 30.616 118.292 32.092 117.5 33.364C116.732 34.612 115.652 35.596 114.26 36.316C112.868 37.036 111.248 37.396 109.4 37.396Z" fill="#3044CA"/>
<path d="M65 4.00475C61.568 3.97188 59.5877 4.10667 56 4.50474C53.9575 4.77491 51 5.5047 51 5.5047C51 5.5047 47.3226 6.28106 45 7.00463C42.1261 7.86672 40.6681 8.47488 38 9.50454L34 11.5045L30 14.0044L25 17.5043L21 21.0041L18 24.004L15 27.5039L13 30.0038L11 33.0037L9.5 35.5036L7.5 39.0034L6 42.5033L4.5 46.0032L3 51.003L2 56.0028L1 63.0025V68.5023L1.5 75.0021L3 83.0018L4.5 88.0016L6 91.5014L8 96.0013L11 101.001L14 105.501C15.669 107.564 16.6586 108.655 18.5 110.501C21.0727 113.189 22.6627 114.558 25.5 117C28.2082 118.847 29.7339 119.857 32.5 121.5C35.1548 123.172 36.7121 123.843 39.5 125L46.5 127.5L53 129L59 130H66.8613C70.4316 129.802 74 129 74 129M80 128L85 126.5L92 123.5L99 119.5L103.5 116.001C105.114 114.701 106.004 113.952 107.5 112.501L110 110.001" stroke="#24254C" stroke-width="2" stroke-linecap="round"/>
</svg>
