<svg width="16" height="16" viewBox="0 0 16 16" fill="none" xmlns="http://www.w3.org/2000/svg">
<path d="M3.48861 13V4.642L1.72461 5.384V4.152L3.99261 3.2H4.87461V13H3.48861ZM10.397 13.154C9.09029 13.154 7.95629 12.7107 6.99495 11.824L7.82095 10.9C8.24095 11.2827 8.65629 11.5627 9.06695 11.74C9.48695 11.908 9.94429 11.992 10.439 11.992C10.887 11.992 11.2743 11.908 11.601 11.74C11.9276 11.5627 12.1843 11.32 12.371 11.012C12.5576 10.6947 12.651 10.3353 12.651 9.934C12.651 9.346 12.441 8.87 12.021 8.506C11.6103 8.142 11.0736 7.96 10.411 7.96C10.075 7.96 9.73895 8.00667 9.40295 8.1C9.07629 8.184 8.73562 8.31467 8.38095 8.492L7.44295 8.212L7.66695 3.2H13.491V4.362H8.81495L8.67495 7.4C9.02962 7.22267 9.37495 7.09667 9.71095 7.022C10.047 6.938 10.4016 6.896 10.775 6.896C11.4283 6.896 11.993 7.022 12.469 7.274C12.9543 7.51667 13.3323 7.862 13.603 8.31C13.8736 8.758 14.009 9.276 14.009 9.864C14.009 10.5173 13.855 11.0913 13.547 11.586C13.2483 12.0713 12.8283 12.454 12.287 12.734C11.7456 13.014 11.1156 13.154 10.397 13.154Z" fill="#3044CA"/>
</svg>
